<svg xmlns="http://www.w3.org/2000/svg" width="214" height="128" fill="none" viewBox="0 0 214 128">
  <path stroke="#20F482" stroke-linecap="round" stroke-width="12" d="M41.526 94.435L9.435 65.474"/>
  <path fill="#20F482" d="M23.78 61.67c-.84.66-1.74.75-2.7.27-.9-.48-1.35-1.26-1.35-2.34v-6.57c0-3.42 1.38-6.12 4.14-8.1l9.09-6.66c2.7-1.98 5.79-2.97 9.27-2.97h5.67c1.38 0 2.58.51 3.6 1.53s1.53 2.22 1.53 3.6v55.44c0 1.38-.51 2.58-1.53 3.6S49.28 101 47.9 101h-5.67c-1.38 0-2.58-.51-3.6-1.53s-1.53-2.22-1.53-3.6V52.13h-.18l-13.14 9.54zM64.88 47.63c-1.38 0-2.58-.51-3.6-1.53s-1.53-2.22-1.53-3.6v-2.07c0-1.38.51-2.58 1.53-3.6s2.22-1.53 3.6-1.53h33.57c1.38 0 2.58.51 3.6 1.53s1.53 2.22 1.53 3.6v2.07c0 3.42-1.32 6.21-3.96 8.37L86.03 62.12v.09c0 .06.03.09.09.09h1.08c5.22 0 9.39 1.62 12.51 4.86 3.18 3.24 4.77 7.62 4.77 13.14 0 6.96-2.13 12.3-6.39 16.02-4.26 3.72-10.38 5.58-18.36 5.58-4.8 0-9.66-.57-14.58-1.71-1.44-.36-2.64-1.14-3.6-2.34a7.106 7.106 0 01-1.35-4.23v-3.06c0-1.2.48-2.13 1.44-2.79 1.02-.72 2.13-.9 3.33-.54 5.16 1.68 9.66 2.52 13.5 2.52 3.48 0 6.18-.81 8.1-2.43s2.88-3.87 2.88-6.75c0-2.94-1.11-5.01-3.33-6.21-2.22-1.2-6.36-1.83-12.42-1.89-1.38 0-2.58-.48-3.6-1.44-1.02-1.02-1.53-2.22-1.53-3.6v-.18c0-3.36 1.29-6.15 3.87-8.37l12.78-11.07v-.09c0-.06-.03-.09-.09-.09H64.88zM144.155 94.507a33.39 33.39 0 01-3.12 2.505 25.016 25.016 0 01-3.428 2.021 21.002 21.002 0 01-3.735 1.319c-1.26.351-2.549.527-3.867.527-2.901 0-5.625-.513-8.174-1.538a20.608 20.608 0 01-6.724-4.35c-1.904-1.905-3.413-4.205-4.526-6.9-1.084-2.725-1.626-5.772-1.626-9.14V52.934h11.953V78.95c0 1.582.235 3.003.703 4.263.498 1.23 1.158 2.27 1.978 3.12a8.223 8.223 0 002.856 1.934c1.114.44 2.3.659 3.56.659 1.23 0 2.388-.279 3.472-.835a10.018 10.018 0 002.9-2.285 10.948 10.948 0 001.934-3.164c.468-1.202.703-2.432.703-3.692V52.935h11.997V100h-2.901l-3.955-5.493zM194.057 76.05c0-1.64-.323-3.223-.967-4.746a13.011 13.011 0 00-2.549-4.087 12.224 12.224 0 00-3.823-2.857 10.011 10.011 0 00-4.614-1.098c-1.641 0-3.194.278-4.659.835a10.82 10.82 0 00-3.779 2.46c-1.055 1.085-1.89 2.432-2.505 4.044-.615 1.582-.923 3.398-.923 5.449 0 1.963.308 3.735.923 5.317.615 1.553 1.45 2.886 2.505 4a11.605 11.605 0 003.779 2.592 12.43 12.43 0 004.659.879c1.64 0 3.178-.352 4.614-1.055a13.196 13.196 0 003.823-2.856 13.71 13.71 0 002.549-4.087c.644-1.553.967-3.15.967-4.79zm12.085 18.017c0 3.31-.63 6.416-1.89 9.317-1.26 2.9-2.988 5.434-5.186 7.602-2.168 2.168-4.716 3.882-7.646 5.142-2.9 1.26-6.006 1.89-9.316 1.89l-6.021-.088v-11.997l5.933.088c1.875 0 3.471-.25 4.79-.748 1.318-.468 2.431-1.127 3.34-1.977a9.313 9.313 0 002.153-2.857 17.292 17.292 0 001.318-3.427c-.469.761-1.142 1.391-2.021 1.89a14.01 14.01 0 01-2.945 1.142 17.291 17.291 0 01-3.339.659 31.613 31.613 0 01-3.208.176c-3.311 0-6.431-.571-9.361-1.714-2.9-1.143-5.449-2.769-7.646-4.878-2.168-2.139-3.882-4.746-5.142-7.822-1.26-3.076-1.89-6.548-1.89-10.415 0-3.545.63-6.841 1.89-9.888 1.26-3.047 2.974-5.684 5.142-7.91a24.16 24.16 0 017.646-5.23c2.93-1.26 6.05-1.89 9.361-1.89 1.523 0 3.032.191 4.526.572 1.494.381 2.944.908 4.35 1.582a26.071 26.071 0 013.999 2.373c1.29.908 2.491 1.89 3.604 2.944l4.658-5.58h2.901v41.044z"/>
</svg>
